<svg width="393" height="221" fill="none" xmlns="http://www.w3.org/2000/svg"><path d="M393 221V25.556L258.5 52l-157-8.05L-5 93.5V221h398z" fill="#7C9BFF"/><path d="M108.5 10.5C57.913 21.446-7 75.5-7 75.5V136S69.5 17 108.5 68s44-21.5 164 7.5 130 18.5 130 18.5V0s-77.287 33.639-130 38c-64.719 5.355-100.529-41.233-164-27.5z" fill="#7C9BFF"/><path d="M63.448 216.203s-17.282-62.031 15.463-98.609c20.97-23.422 55.177-16.454 55.177-16.454s46.713-70.834 92.404-40.656c61.397 40.558 60.033.195 92.356 23.73 38.592 28.068 0 135.838 0 135.838l-255.4-3.849z" fill="#466EF2"/><path d="M315.388 108.449c-26.946-33.103-47.217 11.987-86.622-17.477-56.427-42.199-60.553 68.463-79.589 65.279-27.141-4.515-30.357-28.392-61.77-8.397-7.846 4.986-18.355 17.785-21.262 32.761-3.054 15.723.714 34.045.714 34.045l249.715 4.905c6.838-17.234 20.222-84.835-1.186-111.116z" fill="#3E62D9"/><path d="M321.625 220.539H62.133A5.143 5.143 0 0157 215.407v-.747h269.758v.747a5.143 5.143 0 01-5.133 5.132zM164.104 89.526h27.937a4.824 4.824 0 004.824-4.824v-9.648a4.824 4.824 0 00-4.824-4.824h-27.937a4.824 4.824 0 00-4.824 4.824v9.648a4.824 4.824 0 004.824 4.824z" fill="#3452B5"/><path d="M186.308 87.285L174.873 97.42l2.501-10.46 8.934.325z" fill="#3452B5"/><path d="M283.114 117.171l-.617-2.81s-2.031 1.283-3.216 3.119c-1.186 1.835-1.755 6.741-2.096 6.935-.324.179-4.076-5.587-4.726-6.497-.812-1.137-1.121-2.42-1.624-3.394-.504-.991-2.291-1.316-2.973-1.202-.682.13.926 2.988.926 2.988s4.061 7.066 5.409 10.915c1.364 3.866 5.587 5.718 6.269 5.166.666-.553 2.648-15.22 2.648-15.22z" fill="#F48C7F"/><path d="M270.786 115.06s-.163-.747-.617-.894c-.455-.162-1.251-.016-1.3 0-.049.017-.942-.454-.942-.454l.731 1.348s1.413 1.673 1.9 1.039c.471-.617.228-1.039.228-1.039z" fill="#F7A491"/><path d="M267.683 113.76s-.519 2.615-.389 3.151c.13.553.454.26.519.147.26-.488.439-2.161.439-2.161l-.569-1.137z" fill="#F48C7F"/><path d="M268.788 115.937s-.244 1.608-.504 1.803c-.162.13-.373.048-.438-.276-.065-.325.325-2.323.325-2.323l.617.796z" fill="#F48C7F"/><path d="M270.282 120.517l.845-.406-3.606-7.406a.948.948 0 00-.439 1.266l3.2 6.546zM279.346 105.574c-.504-2.306-1.007-4.645.325-7.195 1.088-2.047 2.972-3.233 5.148-3.493 6.156-.73 4.841 5.02 13.449 6.27 2.68.374 5.166.747 7.391 2.079 4.044 2.404 5.555 6.253 2.891 12.539-6.562 15.366-22.626 2.323-24.624-.698-1.462-2.258-4.255-8.008-4.58-9.502z" fill="#1E2B5F"/><path d="M303.97 202.673s.438 4.45 1.575 5.278c1.121.813 2.631 3.834 1.884 5.474-.243.52-.714.812-1.25.975-1.576.487-3.265-.341-3.947-1.852-.374-.845-.699-1.965-.764-3.395-.179-3.622-1.299-5.457-1.299-5.457l3.801-1.023zM286.655 204.508s-.357 4.483-.065 5.945c.146.779 1.007 2.387.617 3.135-.39.731-.845.909-.845.909l-10.232.163c-.553.016-.195-.341.259-.666.731-.553 1.332-.91 3.671-2.031.163-.081.715-.438.926-.552.504-.309 1.023-.812 1.462-1.299.731-.812.796-4.776.796-4.776l3.411-.828z" fill="#F7A491"/><path d="M278.663 144.768s-1.299 7.292-.454 12.084c.844 4.775 4.905 49.118 4.905 49.118l4.515.243s.942-18.516.78-21.083c-.179-2.582-1.511-6.886-1.511-6.886l.455-14.96-5.701-19.637-2.989 1.121z" fill="#1E2B5F"/><path d="M291.917 143.241s3.541 5.327 4.386 9.745c.861 4.418-.617 17.981 1.007 23.763.893 3.135 4.223 7.975 4.727 12.02.519 4.044 2.501 14.651 2.501 14.651l-4.499.893-10.493-26.475-8.219-23.926-2.095-12.328 12.685 1.657z" fill="#1E3877"/><path d="M289.042 112.883s3.103.358 4.971 2.372c1.851 2.03-3.005 18.289-3.346 20.871-.341 2.567 2.761 8.577 2.761 8.577s-11.613 2.16-14.765.065c0 0-.341-18.517 0-20.353.325-1.851 3.152-9.323 3.834-10.054.666-.747 6.545-1.478 6.545-1.478z" fill="#F5FFF5"/><path d="M293.444 116.781c-.308-.909-1.332-1.331-2.209-.958-1.202.52-2.858 1.511-3.671 3.184-1.348 2.826-6.091 12.523-7.552 12.88-1.462.374-7.44-10.054-7.44-10.054s.163-1.836-.341-2.875c-.503-1.04-2.03-2.144-2.257-1.787-.228.374.844 1.283.844 1.478 0 .179-.455.309-1.072-.065-.617-.373-.958-1.104-.958-1.104s-1.007 1.835.065 3.492a966.649 966.649 0 011.51 2.339s6.936 15.382 9.47 15.577c2.371.162 15.983-14.927 13.611-22.107z" fill="#F7A491"/><path d="M287.467 106.614s.032.129.081.373c.195 1.121 1.007 4.873 1.559 5.896.65 1.251-2.257 5.214-5.067 4.727-.829-.146.714-3.639.633-4.012-.146-.715-.341-1.673-.536-2.68-.113-.552-.211-1.121-.325-1.657-.292-1.51-.552-2.761-.552-2.761l4.207.114z" fill="#F7A491"/><path d="M287.548 106.987c-.049-.244-.081-.373-.081-.373l-4.207-.114s.26 1.251.552 2.761c.098.536.212 1.105.325 1.657.65-.098 1.332-.406 2.014-1.007a5.388 5.388 0 001.511-2.258c-.049-.26-.081-.487-.114-.666z" fill="#F47458"/><path d="M284.949 96.624s1.706.228 2.957 1.836c1.234 1.608 2.582 6.562-.504 9.258-3.086 2.696-6.14-.357-6.594-3.59-.455-3.232-.358-7.634 4.141-7.504z" fill="#F7A491"/><path d="M279.817 103.024c.373.715.99 1.104 1.38.877.406-.227.423-.991.049-1.705-.374-.715-.991-1.105-1.381-.878-.389.228-.406.991-.048 1.706z" fill="#F7A491"/><path d="M284.413 96.543s2.648 4.71 4.548 4.938c1.901.211 2.144 2.712 2.144 2.712s-.682-5.766-2.55-6.886c-1.884-1.105-4.142-.764-4.142-.764z" fill="#1E2B5F"/><path d="M288.344 102.602c-.162.828.162 1.608.698 1.705.536.114 1.089-.471 1.251-1.316.146-.828-.162-1.591-.698-1.705-.536-.114-1.105.471-1.251 1.316z" fill="#F7A491"/><path d="M301.939 211.752c2.453.455 4.077-.991 4.938-2.063.617 1.219 1.007 2.745.552 3.736-.406.877-1.51 1.121-2.436 1.153a2.647 2.647 0 01-2.404-1.331 7.712 7.712 0 01-.65-1.495zM280.986 211.411c2.696.682 4.694.211 5.815-.227.292.812.682 1.835.471 2.42-.244.731-.601.893-.91.893-2.468.065-9.047.163-10.931.179-.276 0-.422-.293-.243-.504.471-.552 5.587-2.647 5.798-2.761z" fill="#FC716E"/><path d="M259.578 83.614h22.545a3.885 3.885 0 003.882-3.898v-7.78a3.882 3.882 0 00-3.882-3.883h-22.545c-2.144 0-3.898 1.738-3.898 3.883v7.78a3.899 3.899 0 003.898 3.898z" fill="#3452B5"/><path d="M276.341 81.47l2.956 8.852-8.592-8.852h5.636z" fill="#3452B5"/><path d="M277.104 76.418c0 .796.682 1.43 1.527 1.43.828 0 1.511-.634 1.511-1.43 0-.78-.683-1.413-1.511-1.413-.845 0-1.527.634-1.527 1.413zM269.34 76.418c0 .796.682 1.43 1.527 1.43.828 0 1.511-.634 1.511-1.43 0-.78-.683-1.413-1.511-1.413-.845 0-1.527.634-1.527 1.413zM261.576 76.418c0 .796.682 1.43 1.527 1.43.828 0 1.511-.634 1.511-1.43 0-.78-.683-1.413-1.511-1.413-.845 0-1.527.634-1.527 1.413z" fill="#F5FFF5"/><path d="M138.733 81.129h-26.67c-2.534 0-4.597-2.063-4.597-4.613v-9.194c0-2.55 2.063-4.612 4.597-4.612h26.67c2.534 0 4.597 2.062 4.597 4.613v9.193c0 2.55-2.063 4.613-4.597 4.613z" fill="#1E3877"/><path d="M118.884 78.579l-3.492 10.476L125.56 78.58h-6.676z" fill="#1E3877"/><path d="M117.991 72.618c0 .925-.812 1.673-1.803 1.673-.991 0-1.786-.748-1.786-1.673 0-.926.795-1.673 1.786-1.673s1.803.747 1.803 1.673zM127.168 72.618c0 .925-.796 1.673-1.786 1.673-.991 0-1.803-.748-1.803-1.673 0-.926.812-1.673 1.803-1.673.99 0 1.786.747 1.786 1.673zM136.362 72.618c0 .925-.813 1.673-1.803 1.673-.991 0-1.787-.748-1.787-1.673 0-.926.796-1.673 1.787-1.673.99 0 1.803.747 1.803 1.673z" fill="#F5FFF5"/><path d="M216.145 147.967c1.917-.552 1.966-.211 2.209-.292.277-.098 2.583-3.216 2.583-3.216s6.838-9.128 7.196-9.632l2.16-11.825 6.497-.048s-2.713 12.766-2.989 13.4c-.26.633-11.11 11.792-12.036 12.799 0 0-.584 1.657-1.007 2.664-.406 1.023-1.283 1.77-1.445 2.046-.016.033-.617.877-1.673 1.706-.894.715-.422-.39-.422-.39s1.396-1.64 1.234-1.738c-.13-.081-.828.861-1.819 1.673-.244.195-.504.406-.731.585-.617.487-1.137.227-.585-.39.195-.211.52-.569.796-.78.292-.227.487-.536.698-.779.423-.455.748-.796.715-.796-.032-.016-.032-.179-.308.032-.325.26-.894.959-1.43 1.283-.292.195-.877.618-.877.618s-1.039.487-1.104.422c-.293-.276.308-.812.747-1.007.195-.276.828-.715.828-.715s1.072-1.169.877-1.332c-.081-.081-.828.569-1.673 1.072-.779.471-1.657.813-1.803.666-.227-.26.585-.877.585-.877s.585-.39.763-.536c.228-.178.829-.747.829-.747s1.981-2.111 1.786-2.258c-.194-.13-.795-.325-.974-.243-.179.081-.39.406-.569.487a.521.521 0 01-.633-.162c-.146-.212.503-.943.503-.943s.536-.601 1.072-.747z" fill="#F48C7F"/><path d="M226.931 207.269l.227 4.093c.081.504.422 1.787.422 2.258 0 1.771-7.877-1.494-6.107-2.29.163-.065.991-.601 1.04-1.202.081-.926.292-2.81.292-2.81l4.126-.049z" fill="#F7A491"/><path d="M221.489 211.314s1.852.552 2.794.682 2.193-1.007 2.859-.699c.747.341.666 3.671.666 3.671s-9.86.585-12.637-.308c-1.105-.358 2.55-2.079 6.318-3.346z" fill="#1E2B5F"/><path d="M244.262 207.659l.227 4.093c.097.52.422 1.787.422 2.258 0 1.77-7.861-1.494-6.107-2.274.162-.081 1.251-1.007 1.299-1.624.082-.926.033-2.388.033-2.388l4.126-.065z" fill="#F7A491"/><path d="M238.82 211.72s1.852.536 2.794.666c.958.146 2.209-1.007 2.875-.699.731.341.763 3.395.763 3.395s-10.541.763-13.026.049c-1.105-.325 2.826-2.161 6.594-3.411z" fill="#1E2B5F"/><path d="M231.787 148.779l-3.313 1.43-7.001 33.427.276 25.046 5.62.13s2.599-21.911 2.599-23.6c0-1.706 12.085-29.724 12.085-29.724l-10.266-6.709z" fill="#E5E5E5"/><path d="M234.354 150.615s2.452 25.744 2.452 30.097c0 4.337 1.998 28.62 1.998 28.62l5.62-.032 1.007-18.29c.097-1.705-.13-5.149 0-6.919.877-12.702 2.599-24.656 1.77-29.399-.129-.764-.373-2.761-.86-3.265-3.687-3.801-11.987-.812-11.987-.812z" fill="#F5FFF5"/><path d="M227.499 130.295l6.806-.455s.341-6.074.341-8.982c0-3.524 1.072-8.706.65-8.608-1.186.276-3.216 1.348-4.159 2.664-3.264 4.547-3.638 15.381-3.638 15.381z" fill="#3452B5"/><path d="M243.628 112.104s3.882.552 4.889 1.299c1.153.845 2.436 2.729 2.436 2.729s-4.759 22.528-4.775 26.313c0 2.923 1.023 10.135 1.023 10.135s-14.391.91-19.848-1.25c0 0 1.722-8.56 1.722-10.802 0-2.258 2.062-22.691 2.534-24.12.422-1.3 1.201-3.622 3.833-4.207 2.631-.568 8.186-.097 8.186-.097z" fill="#3452B5"/><path d="M242.556 106.045l.975 6.286s-3.509 7.488-5.604 6.838c-1.754-.536-.682-7.163-.682-7.163s.958-3.557.666-5.344c-.276-1.77 4.645-.617 4.645-.617z" fill="#F7A491"/><path d="M237.911 106.662c-.276-1.77 4.645-.617 4.645-.617l.081.52c-.146.357-.308.65-.536.877-1.088 1.186-2.826 1.884-4.304 1.949.146-.958.244-1.998.114-2.729z" fill="#F47458"/><path d="M243.368 97.144c.146-.049 1.121 7.163-.731 9.161-1.868 1.982-5.473 2.631-6.773 1.072-1.429-1.738-1.364-9.486 1.527-11.532 2.875-2.047 5.977 1.3 5.977 1.3z" fill="#F7A491"/><path d="M238.479 91.995c2.242.439 3.687 1.803 4.207 2.372 1.023.13 2.388.682 3.817 3.02 1.754 2.876.455 6.059-1.575 7.618-2.031 1.576-2.015 3.379-2.015 3.379l-.308-.942a5.04 5.04 0 01-.26-2.193c.049-.455.146-.926.325-1.332.487-1.039-1.056-1.738-1.478-2.599-.341-.666-.358-2.192-.877-3.297l-.634-.844s-1.429-1.121-2.842-.813c-1.413.325-1.219-4.954 1.64-4.369z" fill="#1E2B5F"/><path d="M241.289 102.602c-.016.877.374 1.591.893 1.608.504.016.943-.699.959-1.576.016-.877-.39-1.608-.91-1.608-.503-.016-.926.698-.942 1.576z" fill="#F7A491"/><path d="M233.72 135.022l-.081.536a.5.5 0 01-.585.406l-11.142-1.917a.515.515 0 01-.406-.601l.097-.536a.501.501 0 01.585-.406l11.126 1.933a.5.5 0 01.406.585z" fill="#1E2B5F"/><path d="M249.508 115.011c-1.316-.033-2.469 8.576-1.641 9.421.829.844.991 11.451.991 11.451l-12.312-.293h-.016c-.227-.162-2.81-1.9-3.184-2.274-.389-.406-2.274-.194-2.761.342-.503.552 1.105.097 1.543.406.439.292-.325 1.039-.325 1.039s-3.118.455-3.735-.195c-.601-.65-2.226-1.738-2.453-1.088-.114.325.731 1.348 1.202 1.77-.601-.454-1.299-.909-1.543-.828-.439.146-.26.698-.016.877.243.163 2.712 2.047 3.102 2.177.374.13 6.14.276 7.13.503 0 0 16.243 3.687 17.169 3.46.812-.195 1.624-5.393 1.624-9.372 0-3.996-.698-17.282-4.775-17.396z" fill="#F7A491"/><path d="M247.802 113.046s2.274.519 4.63 3.167c2.127 2.388 3.476 15.82 3.476 15.82l-7.375 1.202-.584-6.497-1.966-2.972 1.819-10.72z" fill="#3452B5"/><path d="M153.156 100.133s-6.026-1.543-6.74 4.872c-.731 6.416 2.534 7.407.763 10.509-1.77 3.087-3.752.764-4.142 9.567-.389 8.788 19.784 19.475 25.095 14.261 17.266-16.973-3.232-23.892-2.387-29.09.828-5.198-1.544-9.616-4.695-11.5-3.151-1.884-7.179-1.884-7.894 1.381z" fill="#1E2B5F"/><path d="M173.638 209.202s-.113 1.673.748 2.631c.844.942 4.012 1.446 4.434 2.534.438 1.089-3.184 1.153-4.402.812-1.218-.324-4.385-.584-5.165-.633-.796-.049 1.007-5.295 1.169-5.441.163-.147 3.216.097 3.216.097zM155.122 208.163s.78 3.54.698 4.905c-.065 1.364-1.721 3.476-3.005 3.411-1.267-.081-2.322-.926-2.014-2.583.309-1.657 1.267-5.604 1.267-5.604l3.054-.129z" fill="#FF7446"/><path d="M145.652 148.536s-.812-26.914.471-28.197c.504-.504 4.695-1.885 7.553-2.356 4.272-.698 7.618-.406 7.618-.406s4.369 5.23 4.369 7.163c0 1.933.276 23.991.276 23.991 3.363 1.25 8.593 23.584 8.983 29.35.389 5.75-.455 32.534-.455 32.534l-4.922-.536c-2.68-4.207-3.882-26.345-4.661-29.107-1.089-3.8-6.173-15.446-6.173-15.446l-2.615-1.154s.618 17.559.39 21.603c-.227 4.061.033 23.649.033 23.649l-4.922-.259c-3.866-6.92-6.611-38.837-6.529-40.51.097-1.673-1.608-4.401-1.966-9.193-.276-3.768 2.55-11.126 2.55-11.126z" fill="#3452B5"/><path d="M154.277 148.763h8.739v-.926h-8.739v.926z" fill="#F5FFF5"/><path d="M157.851 149.137h1.689c.308 0 .568-.26.568-.569v-.406a.562.562 0 00-.568-.552h-1.689a.548.548 0 00-.553.552v.406c0 .309.244.569.553.569z" fill="#1E3877"/><path d="M145.652 148.536s-.714-23.893.277-27.726c1.266-.861 5.343-2.388 6.334-2.453-.179 1.949 1.608 13.01 3.427 18.679 1.154 3.59.991 7.975.553 11.386a46.043 46.043 0 01-1.17 5.977c-.097.033-2.81 1.478-7.52 1.478-.211 0-1.966-.129-3.996-.438.747-3.411 2.095-6.903 2.095-6.903zM160.141 154.659c-.098-.341.698-4.223.942-6.237h.016c1.657-13.449.163-30.585.13-30.845h.016c.098.098.374.423.764.877 1.169 1.495 3.411 4.516 3.622 6.059a.526.526 0 01.016.13V126.072c.011.13.016.266.016.406.065 5.685.276 22.253.276 22.253 1.089.406 2.372 3.005 3.623 6.545-4.061.26-9.129.325-9.421-.617z" fill="#3452B5"/><path d="M140.893 152.044c-.016 3.362 9.064 3.606 13.384 1.673l-.471-14.634-1.478-20.824s-5.457 1.089-7.309 2.339c0 0-.601 21.668-1.137 26.07-.52 4.402-2.989 3.833-2.989 5.376zM166.102 118.763s2.128 17.25 2.128 21.733c0 4.499.844 12.247.844 12.247s-4.596 1.77-7.796.974c0 0 3.037-17.298 3.037-18.435 0-1.121-3.086-17.705-3.086-17.705s2.94.147 4.873 1.186z" fill="#FC716E"/><path d="M168.944 210.404l5.961.39.017-1.543-6.205-.341.227 1.494zM150.931 209.413l5.896.39.049-1.543-6.205-.341.26 1.494z" fill="#3452B5"/><path d="M169.578 211.509c.471.584 2.014 1.802 6.497 1.266 1.169.472 2.485.926 2.745 1.592.438 1.089-3.184 1.153-4.402.812-1.218-.324-4.385-.584-5.165-.633-.439-.016-.097-1.592.325-3.037zM155.82 213.068c-.065 1.364-1.721 3.476-3.005 3.411-1.267-.081-2.322-.926-2.014-2.583.098-.568.276-1.38.471-2.225.163 1.04.65 2.81 1.998 2.193 1.478-.666 2.128-2.193 2.388-2.794.114.78.195 1.511.162 1.998zM168.555 147.09c-1.722-.081-3.915-.195-6.075-.292.13-.747.26-1.527.39-2.29l5.522.292c.049.763.098 1.543.163 2.29zM154.05 146.408h-.033c-1.348 0-6.562 1.429-8.446 1.429a3.688 3.688 0 01-1.803-.471c.011-.01.016-.027.016-.048a5.79 5.79 0 00.098-.65c.011-.119.027-.244.049-.374.065-.649.113-1.397.162-2.079h9.876l.081 2.193z" fill="#1E2B5F"/><path d="M166.053 118.796s1.624.341 3.898 7.975c2.274 7.617.764 17.412-.812 18.435-1.575 1.007-16.811.634-16.811.634l-.065-5.491s11.549-1.802 12.686-3.199c.276-.358-.195-1.819-.098-3.509.309-5.149 1.202-14.845 1.202-14.845z" fill="#FC716E"/><path d="M165.501 136.338s1.575-1.089 2.16-1.82c.601-.731 1.787-1.705 1.836-1.185.048.519-.488 1.267-.488 1.267s2.161-1.511 2.437-1.267c.292.227.568 1.835.373 3.622-.195 1.786-5.246 3.086-5.246 3.086l-1.072-3.703z" fill="#DC7A63"/><path d="M145.344 146.7c5.49.91 17.103-3.167 21.797-4.645l-1.754-6.107s-13.871 3.833-15.674 3.021c-.91-.406-3.2-4.678-4.044-9.015-.861-4.45-.65-9.356-.65-9.356s-3.98 5.214-2.859 16.243c.845 8.414.764 9.453 3.184 9.859z" fill="#FF8B88"/><path d="M146.724 134.161s1.3 1.105 2.307 1.933c1.023.828 2.599 3.037 2.599 3.037s-1.868.455-2.534.52c-.666.065-2.826-1.137-3.59-1.072-.747.081-.536-1.039.39-.845.926.195 1.835.293 1.835.293s-2.16-1.43-3.167-2.258c-1.023-.812-.195-1.446.634-.763.828.666 1.721 1.055 1.721 1.055s-2.923-2.468-2.485-2.988c.422-.52 2.29 1.088 2.29 1.088z" fill="#DC7A63"/><path d="M158.679 111.551s.309 4.353.715 5.312c.113.276.308.471.519.617 1.154.78-.893 10.476-1.932 10.265-1.121-.227-3.915-6.253-4.808-8.202-.26-.585-.033-1.267.552-1.543.975-.423.26-8.414.26-8.414l4.694 1.965z" fill="#F26E5A"/><path d="M154.635 109.277s-.244.13-.212.455c.049.666.406 1.511.699 2.112 1.397 2.777 3.411 4.125 4.791 4.32-.357-1.413-.601-4.921-.601-4.921l-4.677-1.966z" fill="#F26E5A"/><path d="M153.839 106.159s.714-3.151 3.07-4.077c2.355-.942 4.515-.244 5.343 2.842.813 3.086-.373 7.975-1.803 9.47-1.445 1.494-6.432-1.007-6.61-8.235z" fill="#FC7E72"/><path d="M154.537 107.15s-1.186-1.836-1.9-.764c-.731 1.056-.081 3.59 1.283 3.72 1.381.13.617-2.956.617-2.956z" fill="#FC7E72"/><path d="M94.602 207.756v.374c0 .682.113 2.209 1.055 3.33 1.267 1.494 1.284 3.346-.064 3.671-1.332.308-4.516-.114-4.516-.114s-.73-1.413-.227-5.214c.487-3.801.78-7.959.78-7.959l3.621-.65-.65 6.562z" fill="#FF7446"/><path d="M95.316 209.381s1.349 2.063 1.673 2.94c.309.861.244 3.005 0 3.232-2.192 1.949-6.318.195-6.318.195s-.276-1.429-.422-3.184c-.146-1.754-.065-3.394.422-3.394s.585.925 1.69.666c1.12-.26 1.818-.715 2.955-.455z" fill="#1E2B5F"/><path d="M90.33 213.441c.844.374 1.981.796 3.037.975 1.137.179 2.664-.39 3.817-.958.05.909-.032 1.949-.195 2.095-2.192 1.949-6.318.195-6.318.195s-.195-.975-.341-2.307z" fill="#F5FFF5"/><path d="M105.094 205.255c-.471 1.689 0 3.541 1.202 4.646.423.389.91.747 1.446 1.023 2.128 1.039 4.873.812 5.246 2.956.39 2.16-13.416-.601-13.416-.601s.958-5.246 1.023-6.123c.049-.878-.097-4.094-.097-4.094l5.344-.438-.748 2.631z" fill="#FF7446"/><path d="M100.124 209.576s-.162.828-.552 2.241c-.39 1.413-.146 2.745-.146 2.745s12.929.682 13.449.228c.536-.471.26-2.161.13-2.307-.13-.146-1.771-.65-2.615-1.251-.845-.584-3.72-2.81-4.695-2.712-.958.081-1.413.893-3.264.991-1.836.097-1.852-.341-2.307.065z" fill="#1E2B5F"/><path d="M112.875 214.79c-.52.454-13.45-.228-13.45-.228s-.162-.877-.015-1.965c6.757 1.429 13.595-.114 13.595-.114.13.146.406 1.836-.13 2.307z" fill="#F5FFF5"/><path d="M99.41 212.597c4.612 1.056 9.729.828 13.595-.114-7.033 1.202-12.718.276-12.329.309-.016 0-1.348-.195-1.266-.195z" fill="#9CB9BD"/><path d="M89.274 153.701l1.202 53.097 5.815-.828s1.852-42.605 2.924-43.872c1.072-1.267 1.51.082 1.51.082s4.629 17.72 3.769 21.261c-.861 3.541-4.71 22.48-4.71 22.48l5.57.244s6.367-14.521 6.367-24.624c0-10.103-3.93-26.898-3.93-26.898l-18.517-.942z" fill="#1E3877"/><path d="M99.556 206.132h6.708v-1.559h-6.708v1.559zM89.973 206.798h6.773v-1.965h-6.773v1.965z" fill="#1E2B5F"/><path d="M91.727 205.612a.12.12 0 00.048-.016c.082-.016.147-.13.13-.243-1.072-5.62-1.153-42.15-1.153-42.524 0-.113-.065-.195-.162-.195-.098 0-.179.082-.179.195 0 1.511.065 36.952 1.153 42.621.017.098.082.162.163.162zM100.725 205.612c.081 0 .146-.064.163-.146.26-.828 6.383-20.433 6.042-23.145-.341-2.664-4.256-19.492-4.418-20.206-.033-.098-.13-.163-.211-.13-.098.016-.146.13-.13.243.049.179 4.077 17.51 4.418 20.157.341 2.599-5.961 22.74-6.026 22.951a.219.219 0 00.113.26c.011.011.028.016.049.016z" fill="#1E2B5F"/><path d="M106.751 116.522l8.122 10.703-9.567 3.476 1.445-14.179z" fill="#FFD19D"/><path d="M85.636 113.062c1.234-1.235 4.11-2.144 5.977-2.631a8.323 8.323 0 013.297-.179l4.207.568s5.474 3.509 7.521 5.555c2.046 2.063 3.898 14.895 3.898 14.895l-.926 4.889 1.072 21.538c-.471 0-14.586 1.738-22.431-.618 0 0 0-11.499-.211-18.467-.926-5.296-4.029-23.926-2.404-25.55z" fill="#F5FFF5"/><path d="M85.733 112.981c.65-.601 1.64-1.089 2.453-1.43 0 0 1.56-.844 2.956 4.971 1.413 5.814-.373 12.88.26 13.513.617.618 14.358-.081 14.358-.081s-8.023 4.613-11.954 7.975c-1.56 1.348-5.734 2.047-5.734 2.014-.01-.465-.022-.909-.032-1.331-.455-2.567-4.207-23.877-2.307-25.631z" fill="#FFD19D"/><path d="M120.379 125.228l-6.903 13.026c-.163.309-.488.504-.829.471l-8.186-.471a.906.906 0 01-.78-1.202l4.223-11.889c.13-.341.423-.569.78-.585l10.866-.65c.683-.049 1.154.682.829 1.3z" fill="#3452B5"/><path d="M103.032 136.987l4.288-11.776a.854.854 0 01.779-.584l.423-.033a.966.966 0 00-.536.536l-4.272 11.906a.876.876 0 00.633 1.169l-.519-.032a.893.893 0 01-.796-1.186z" fill="#3452B5"/><path d="M87.601 128.915l.65 2.339s13.855-3.574 15.479-4.353c1.332-.634 6.562-2.047 8.511-1.901.309.016.358.471.049.536-1.234.309-3.671.926-3.671 1.17 0 .325 2.453.796 2.274 1.202-.357.796-1.559 1.267-1.787 2.014-.227.747-2.712.162-3.573.162-.845 0-16.665 9.6-21.457 7.326-4.775-2.291-1.884-12.394-1.884-12.394l5.41 3.899zM113.589 133.917c.325-.308.309-1.088.666-1.461.374-.358.764.373.861-.455.098-.829-.487-2.112.081-2.047.585.065 1.365 2.404 1.365 2.404.406.958-1.446 4.532-2.42 4.288-.975-.243-1.348-1.397-1.348-1.949 0-.536.487-.455.795-.78z" fill="#F99662"/><path d="M99.117 110.82c.011 0 .016.006.016.017h.017l.016.016h.016c.011.011.022.016.033.016 0 .011.005.016.016.016l.032.033h.017l.016.016h.016c0 .011.005.016.016.016a.203.203 0 00.082.049c0 .011.005.016.016.016.52.341 1.624 1.072 2.859 1.949 0 0 .519 2.047.276 3.363-.244 1.332-.764 1.738-1.495 1.445-.731-.292-2.111-2.241-2.42-2.128-.308.098-2.436 2.762-3.46 2.356-.682-.293-2.76-4.808-3.784-7.504.065-.022.135-.044.211-.065a8.323 8.323 0 013.297-.179l4.207.568z" fill="#F5FFF5"/><path d="M101.326 107.491c-.325 1.721-.487 3.589-.195 4.678 0 0-.682 2.956-2.371 3.086-1.706.146-4.938-5.084-4.938-5.084l3.541-5.572 3.963 2.892z" fill="#F99662"/><path d="M100.985 110.203c-2.03-.357-3.947-1.933-4.483-4.239l.861-1.365 3.963 2.892a20.43 20.43 0 00-.341 2.712z" fill="#F26E5A"/><path d="M104.948 97.03s1.673 10.461-1.315 11.663c-2.989 1.218-7.017-.715-7.31-4.272-.308-3.557.455-10.802 8.625-7.39z" fill="#F99662"/><path d="M101.927 94.886s5.685-1.689 6.026-.016c.341 1.657-1.543 2.891-2.842 3.005-1.3.097-4.629-.065-5.653 1.137-1.007 1.202-2.826 6.741-2.826 6.741l-1.023 1.608s-.422-2.924-1.884-4.711c-1.478-1.786-.65-4.856.763-6.968 1.413-2.095 6.156-.698 7.439-.796z" fill="#1E2B5F"/><path d="M98.305 101.903s-.536-1.462-1.348-1.251c-1.82.471-.487 3.704.114 3.801 1.218.179 1.705-.779 1.234-2.55z" fill="#F99662"/><path d="M90.785 117.561c.065 3.46-1.82 13.709-1.82 13.709s-7.292-.146-7.877-.731 1.283-16.048 4.515-18.208c3.834-2.599 5.117 1.868 5.182 5.23z" fill="#F5FFF5"/><path d="M211.857 80.187h27.954a4.81 4.81 0 004.808-4.824v-9.648a4.81 4.81 0 00-4.808-4.825h-27.954a4.825 4.825 0 00-4.824 4.825v9.648a4.825 4.825 0 004.824 4.824z" fill="#1E3877"/><path d="M232.794 74.047l.699 13.66-9.632-13.985 8.933.325z" fill="#1E3877"/></svg>