<svg width="133" height="98" viewBox="0 0 133 98" fill="none" xmlns="http://www.w3.org/2000/svg">
<path d="M61.7117 0.936908C30.3626 2.68013 4.84823 22.1725 0.857554 47.3843C0.583825 49.1708 0.266876 52.5852 0.266876 53.8962V54.5157H10.1355C19.4135 54.5157 20.0186 54.5013 20.0906 54.2563C20.4075 53.2335 21.0847 51.6775 22.0211 49.8335C27.9567 38.164 36.9177 28.3962 46.2965 23.3682C47.5355 22.7199 47.6795 22.6047 47.3338 22.5615C47.0024 22.5182 42.9541 23.0657 41.427 23.3538C40.966 23.4403 40.966 23.4403 41.6143 22.936C45.6626 19.8242 50.5753 17.4759 55.1567 16.4818C56.5397 16.1793 60.7897 15.9199 61.2795 16.1072C61.4668 16.1793 61.2507 16.4818 60.2855 17.5623C58.2397 19.8242 57.3177 21.5098 57.3177 22.9793V23.714L55.8626 22.331C55.0558 21.5674 54.3499 20.9479 54.2634 20.9479C54.0617 20.9479 51.166 23.8004 49.4948 25.6301C44.2507 31.436 40.9084 37.9479 39.9431 44.2869C39.655 46.2606 39.6406 49.747 39.9431 51.2597C40.0728 51.8936 40.1448 52.4267 40.116 52.4555C40.0872 52.4843 38.3296 51.9801 36.2118 51.3462C34.094 50.6979 32.3363 50.1936 32.3075 50.2225C32.2787 50.2513 32.4804 50.7555 32.7253 51.3462C33.316 52.686 34.2524 54.1123 35.4914 55.5674L36.4423 56.6767H18.3474H0.266876V64.8885V73.1004H66.1058H131.945V64.8885V56.6767H116.414H100.869L100.596 56.3741C100.452 56.2013 99.9329 55.7979 99.4719 55.4665L98.6219 54.8758L115.291 54.8326L131.945 54.8038V54.0402C131.945 53.6369 131.873 52.3835 131.801 51.2741C131.008 40.6275 126.729 31.0326 118.878 22.3598C117.12 20.4004 113 16.5827 112.885 16.7844C111.919 18.5708 111.429 19.8098 111.285 20.8471L111.185 21.5386L110.781 20.9911C110.363 20.4149 109.629 19.7089 108.707 19.0174L108.174 18.614L107.194 19.4496C103.635 22.5326 101.302 24.9962 98.9388 28.1369C95.0778 33.3089 92.7295 38.697 91.8075 44.503C91.4905 46.4911 91.4473 50.4962 91.7354 52.1818C91.8363 52.8301 91.9083 53.3919 91.8795 53.4208C91.8507 53.4496 90.338 52.9453 88.5371 52.3114C86.7363 51.6919 85.2236 51.2021 85.1804 51.2309C85.0795 51.3318 86.3473 54.2852 86.9956 55.4809C87.3126 56.0572 87.5719 56.5614 87.5719 56.6046C87.5719 56.6479 84.5609 56.6767 80.8727 56.6767C77.1702 56.6767 74.1736 56.6191 74.1736 56.547C74.1736 56.3597 75.3694 53.6945 76.2049 52.0521C76.5939 51.2453 76.9109 50.5682 76.8821 50.5394C76.7956 50.4674 73.6693 51.9225 72.3583 52.6428C71.1049 53.3343 71.1338 53.464 71.9694 51.2021C76.3922 39.2301 86.5778 27.7623 98.91 20.8615C99.8464 20.3428 100.639 19.8818 100.682 19.8386C100.725 19.7954 100.524 19.7954 100.25 19.8386C99.76 19.925 94.199 20.5877 92.6142 20.7462L91.8219 20.8182L92.182 20.5157C93.1041 19.7377 95.899 17.9945 97.6566 17.0725C100.567 15.5598 104.543 14.1047 107.093 13.6005C107.568 13.514 108.044 13.4132 108.159 13.3699C108.404 13.2979 107.597 12.7216 105.22 11.2954C92.7583 3.78945 77.127 0.0725024 61.7117 0.936908ZM86.5202 14.9259C85.4973 15.7615 83.9846 18.4123 83.1058 20.9479C82.9185 21.4665 82.7312 21.942 82.6736 21.9996C82.616 22.0572 82.0397 21.5242 81.377 20.8038C80.7287 20.0979 80.138 19.5072 80.066 19.5072C79.8066 19.5072 75.9312 23.4115 74.5049 25.1259C70.3126 30.1394 67.3736 35.9309 66.1778 41.564C65.5583 44.4165 65.3422 48.7674 65.6736 51.1157C65.76 51.6631 65.8033 52.1386 65.7744 52.153C65.7456 52.1818 63.8872 51.7208 61.6253 51.1301C59.3778 50.5394 57.4473 50.0496 57.3465 50.0496C56.9431 50.0496 59.1329 53.853 60.66 55.7691L61.3804 56.6767H54.3643H47.3626L47.4634 56.3453C47.6075 55.8555 48.7601 53.3343 49.4804 51.8936L50.1143 50.6258L47.7948 51.7784C46.5126 52.4267 45.4465 52.9165 45.4033 52.8877C45.3168 52.8013 45.7202 51.303 46.2389 49.7182C49.3363 40.4979 56.8567 31.6377 67.6185 24.5208C68.8143 23.7284 70.6007 22.6191 71.6092 22.0572C72.6177 21.4954 73.41 21.0055 73.3668 20.9623C73.1363 20.7318 70.4134 21.1352 67.9211 21.7547C67.1431 21.9564 66.466 22.086 66.4227 22.0428C66.3939 21.9996 66.8694 21.4377 67.4888 20.8038C71.321 16.8708 77.8185 14.6089 85.699 14.4937L87.0676 14.4793L86.5202 14.9259ZM5.95755 59.0394C6.21687 59.1546 6.50501 59.3707 6.59145 59.5292C6.69229 59.7309 6.74992 61.7191 6.74992 65.508V71.1987L6.2889 71.5877C5.84229 71.9623 5.81348 71.9767 4.04145 71.919C2.28382 71.8758 2.25501 71.8614 1.90925 71.4724L1.56349 71.069V65.4216C1.56349 59.1835 1.54908 59.2699 2.47111 58.9962C3.20586 58.7801 5.39568 58.8089 5.95755 59.0394ZM11.533 58.9818C12.5414 59.2699 12.5126 59.1258 12.5126 65.4216V71.069L12.1669 71.4724C11.8211 71.8614 11.7923 71.8758 10.0347 71.919C8.26263 71.9767 8.23382 71.9623 7.78721 71.5877L7.32619 71.1987V65.508C7.32619 61.7191 7.38382 59.7309 7.48467 59.5436C7.57111 59.3707 7.84484 59.1546 8.08975 59.0538C8.63721 58.8089 10.7694 58.7801 11.533 58.9818ZM17.4397 58.9818C18.4482 59.2699 18.4194 59.1258 18.4194 65.4216V71.069L18.0736 71.4724C17.7423 71.8614 17.6702 71.8758 16.1143 71.919C14.3135 71.9767 13.9245 71.919 13.5211 71.5157C13.2474 71.2419 13.233 71.0114 13.233 65.4216V59.6013L13.5643 59.3131C13.7372 59.1402 14.0109 58.9818 14.1694 58.9385C14.7169 58.8089 16.9067 58.8377 17.4397 58.9818ZM23.5626 59.1258C24.1677 59.5148 24.1965 59.8174 24.1533 65.6521L24.1101 71.2131L23.7787 71.5445C23.4906 71.847 23.2889 71.8758 21.7906 71.919C20.6957 71.9623 19.9753 71.919 19.7016 71.7894C18.866 71.458 18.8516 71.3428 18.8516 65.3351V59.875L19.2118 59.4284C19.6728 58.8953 19.8601 58.8521 21.733 58.8953C22.7558 58.9097 23.3465 58.9818 23.5626 59.1258ZM29.4694 59.3131L29.8728 59.7021L29.916 65.0758C29.9448 68.6631 29.916 70.608 29.8007 70.9682C29.5558 71.8182 29.0948 71.9767 27.0346 71.919C25.3491 71.8758 25.3058 71.8614 24.9601 71.4724L24.6143 71.069V65.5224C24.6143 59.3563 24.6287 59.2555 25.5219 58.9962C25.7669 58.9097 26.6745 58.8665 27.5245 58.8809C29.0084 58.9097 29.0948 58.9385 29.4694 59.3131ZM35.088 59.2123L35.4914 59.5148L35.5346 65.364L35.5635 71.1987L35.1024 71.5877C34.6558 71.9623 34.627 71.9767 32.855 71.919C31.0974 71.8758 31.0685 71.8614 30.7228 71.4724L30.377 71.069V65.4216C30.377 59.1835 30.3626 59.2699 31.2846 58.9962C31.544 58.9097 32.4084 58.8665 33.2152 58.8809C34.4541 58.9097 34.7423 58.953 35.088 59.2123ZM40.0728 59.7309L41.3118 60.6385L41.3262 65.9258V71.1987L40.8796 71.5733C40.4618 71.9334 40.3609 71.9479 38.7329 71.9479C37.105 71.9479 37.0041 71.9334 36.5863 71.5733L36.1397 71.1987V65.508C36.1397 61.7191 36.1974 59.7309 36.2982 59.5436C36.5143 59.1258 37.2346 58.8521 38.099 58.8377C38.7762 58.8377 38.9346 58.9097 40.0728 59.7309ZM52.16 58.9962C53.1397 59.2555 53.1397 59.2699 53.1397 65.5224V71.069L52.7939 71.4724C52.4626 71.8614 52.3906 71.8758 50.8346 71.919C49.0338 71.9767 48.6448 71.919 48.2414 71.5157C47.9677 71.2419 47.9533 71.0114 47.9533 65.4216V59.6013L48.2846 59.3131C48.4575 59.1402 48.7312 58.9818 48.8897 58.9385C49.4372 58.8089 51.627 58.8377 52.16 58.9962ZM58.2109 58.9962C59.1906 59.2555 59.1906 59.2699 59.1906 65.5224V71.069L58.8448 71.4724C58.499 71.8614 58.4558 71.8758 56.7702 71.919C54.71 71.9767 54.249 71.8182 54.0041 70.9682C53.8889 70.608 53.86 68.6631 53.8889 65.0758L53.9321 59.7309L54.2778 59.3563C54.4651 59.1546 54.7533 58.9674 54.9261 58.9385C55.56 58.8089 57.7067 58.8521 58.2109 58.9962ZM64.2761 59.5724L65.0973 60.3072V65.5368C65.0973 68.519 65.0397 70.9394 64.9533 71.1411C64.7227 71.7606 64.1321 71.9479 62.4321 71.9479C60.7321 71.9479 60.1414 71.7606 59.9109 71.1411C59.8244 70.925 59.7668 68.447 59.7668 65.3207V59.875L60.127 59.4284C60.5592 58.9241 60.7321 58.8809 62.288 58.8665L63.4405 58.8377L64.2761 59.5724ZM76.4066 59.2699L76.7668 59.6013V65.4216C76.7668 71.0114 76.7524 71.2419 76.4787 71.5157C76.0753 71.919 75.6863 71.9767 73.8855 71.919C72.3295 71.8758 72.2575 71.8614 71.9261 71.4724C71.5804 71.069 71.5804 71.0402 71.5804 67.7699C71.5804 64.8885 71.6092 64.4707 71.7965 64.5428C71.9117 64.6004 72.0126 64.5716 72.0126 64.4851C72.0126 63.7792 73.0066 59.414 73.2804 58.9241C73.3092 58.8665 73.9575 58.8377 74.6922 58.8665C75.8592 58.9097 76.0897 58.9674 76.4066 59.2699ZM81.8812 59.0394C82.1405 59.1546 82.4287 59.3707 82.5151 59.5292C82.6159 59.7309 82.6736 61.7191 82.6736 65.508V71.1987L82.2126 71.5877C81.766 71.9623 81.7371 71.9767 79.9651 71.919C78.2075 71.8758 78.1787 71.8614 77.8329 71.4724L77.4871 71.069V65.4216C77.4871 59.1835 77.4727 59.2699 78.3948 58.9962C79.1295 58.7801 81.3193 58.8089 81.8812 59.0394ZM87.4566 58.9818C88.4651 59.2699 88.4363 59.1258 88.4363 65.4216V71.069L88.0905 71.4724C87.7448 71.8614 87.7159 71.8758 85.9583 71.919C84.1863 71.9767 84.1575 71.9623 83.7109 71.5877L83.2499 71.1987V65.508C83.2499 61.7191 83.3075 59.7309 83.4083 59.5436C83.4948 59.3707 83.7685 59.1546 84.0134 59.0538C84.5609 58.8089 86.6931 58.7801 87.4566 58.9818ZM105.595 59.3852L106.013 59.8462V65.3351C106.013 71.3428 105.998 71.458 105.163 71.7894C104.889 71.919 104.168 71.9623 103.074 71.919C101.575 71.8758 101.374 71.847 101.085 71.5445L100.754 71.2131L100.711 65.6521C100.668 59.7885 100.696 59.4428 101.302 59.1546C101.907 58.8665 102.065 58.8521 103.607 58.8809L105.177 58.9097L105.595 59.3852ZM111.401 59.2555L111.775 59.6013V65.4216C111.775 71.0114 111.761 71.2419 111.487 71.5157C111.084 71.919 110.695 71.9767 108.894 71.919C107.338 71.8758 107.266 71.8614 106.935 71.4724L106.589 71.069V65.5224C106.589 59.3563 106.603 59.2555 107.496 58.9962C107.741 58.9097 108.649 58.8665 109.499 58.8809C110.896 58.9097 111.069 58.9385 111.401 59.2555ZM117.207 59.2123L117.61 59.5148L117.653 65.2631C117.682 69.3979 117.639 71.0979 117.524 71.3284C117.25 71.847 116.688 71.9767 114.873 71.919C113.23 71.8758 113.187 71.8614 112.841 71.4724L112.496 71.069V65.4216C112.496 59.1835 112.481 59.2699 113.403 58.9962C113.663 58.9097 114.527 58.8665 115.334 58.8809C116.573 58.9097 116.861 58.953 117.207 59.2123ZM123.257 59.2123L123.661 59.5148L123.704 65.364L123.733 71.1987L123.272 71.5877C122.825 71.9623 122.796 71.9767 121.024 71.919C119.267 71.8758 119.238 71.8614 118.892 71.4724L118.546 71.069V65.4216C118.546 59.1835 118.532 59.2699 119.454 58.9962C119.713 58.9097 120.578 58.8665 121.385 58.8809C122.624 58.9097 122.912 58.953 123.257 59.2123ZM128.991 59.0394C129.251 59.1546 129.539 59.3707 129.625 59.5292C129.726 59.7309 129.784 61.7191 129.784 65.508V71.1987L129.323 71.5877C128.876 71.9623 128.847 71.9767 127.075 71.919C125.318 71.8758 125.289 71.8614 124.943 71.4724L124.597 71.069V65.4216C124.597 59.1835 124.583 59.2699 125.505 58.9962C126.24 58.7801 128.429 58.8089 128.991 59.0394ZM99.6448 59.2699C99.8176 59.4284 99.9905 59.7165 100.034 59.8894C100.077 60.0623 100.091 62.6843 100.077 65.7097L100.034 71.2131L99.7024 71.5445C99.4142 71.847 99.2125 71.8758 97.7142 71.919C96.6049 71.9623 95.899 71.919 95.6109 71.7894C94.8617 71.4868 94.7753 71.0402 94.7753 67.3953C94.7753 65.6089 94.8185 64.1682 94.8905 64.197C94.9481 64.2258 95.3948 64.4563 95.8846 64.7157C96.3744 64.9606 96.821 65.1767 96.8642 65.1767C96.9075 65.1767 96.9363 64.7733 96.9363 64.269C96.9363 63.2462 97.2244 62.1513 97.7575 61.0707C98.1753 60.264 99.0685 58.9818 99.227 58.9818C99.2846 58.9818 99.4719 59.1114 99.6448 59.2699ZM47.0024 59.4428C47.2041 59.7165 47.2329 60.5377 47.2329 65.4216V71.069L46.8872 71.4724C46.5558 71.8614 46.4838 71.8758 44.9279 71.919C43.0838 71.9767 42.738 71.919 42.3346 71.4868C42.0609 71.1843 42.0465 70.997 42.0465 66.1563V61.1428L42.8101 61.6326C43.2134 61.8919 44.0346 62.3818 44.6109 62.6987L45.6482 63.2894V62.6123C45.6482 61.964 45.9219 60.5665 46.2389 59.5868C46.4117 59.0538 46.6855 58.9962 47.0024 59.4428ZM91.1448 61.114C92.0668 62.036 93.1761 63.0301 93.5795 63.3038L94.3287 63.808L94.3431 67.4385V71.069L93.9973 71.4724C93.6659 71.8614 93.5939 71.8758 92.038 71.919C90.2371 71.9767 89.8481 71.919 89.4448 71.5157C89.171 71.2419 89.1566 71.0114 89.1566 65.4216C89.1566 60.264 89.1854 59.414 89.4015 59.414C89.4303 59.414 90.2083 60.1775 91.1448 61.114ZM66.927 61.6614C67.5465 62.108 68.7134 62.8572 69.5346 63.3326L71.0041 64.197V67.4241C71.0041 71.0402 70.9177 71.4868 70.1685 71.7894C69.8804 71.919 69.1744 71.9623 68.0507 71.919C66.4083 71.8758 66.3651 71.8614 66.0194 71.4724L65.6736 71.069V65.9546C65.6736 63.1453 65.7024 60.8546 65.7312 60.8546C65.7744 60.8546 66.3075 61.2148 66.927 61.6614Z" fill="white"/>
<path d="M114.008 12.5488C113.202 12.6064 109.283 13.1394 108.779 13.2691C108.491 13.3411 108.519 13.3844 109.139 13.7733C109.946 14.292 111.991 15.8191 112.51 16.2945L112.885 16.6403L113.72 15.4445C114.181 14.7818 114.786 13.9606 115.074 13.6005C116.097 12.3471 116.068 12.4479 115.363 12.4767C115.017 12.4911 114.412 12.52 114.008 12.5488Z" fill="white"/>
<path d="M6.90978 93.1981C5.28655 93.1981 4.01277 92.7416 3.08843 91.8285C2.17536 90.9155 1.71883 89.5966 1.71883 87.8719V81.193H3.91695V87.7874C3.91695 89.0048 4.17622 89.8897 4.69475 90.442C5.22455 90.9944 5.96853 91.2706 6.92669 91.2706C7.88484 91.2706 8.62319 90.9944 9.14172 90.442C9.66025 89.8897 9.91952 89.0048 9.91952 87.7874V81.193H12.0838V87.8719C12.0838 89.5966 11.6217 90.9155 10.6973 91.8285C9.78425 92.7416 8.52174 93.1981 6.90978 93.1981ZM25.5949 93.1981C24.6705 93.1981 23.7857 93.0685 22.9402 92.8092C22.0948 92.5387 21.4241 92.1949 20.9281 91.7778L21.689 90.07C22.1624 90.442 22.7486 90.752 23.4475 91C24.1464 91.248 24.8622 91.372 25.5949 91.372C26.2149 91.372 26.7165 91.3044 27.0998 91.1691C27.483 91.0338 27.7648 90.8535 27.9452 90.628C28.1255 90.3913 28.2157 90.1264 28.2157 89.8333C28.2157 89.4726 28.0861 89.1852 27.8268 88.971C27.5676 88.7455 27.2294 88.5708 26.8123 88.4468C26.4065 88.3115 25.95 88.1875 25.4427 88.0748C24.9467 87.9621 24.4451 87.8325 23.9378 87.6859C23.4419 87.5281 22.9853 87.3308 22.5682 87.0941C22.1624 86.8461 21.8299 86.5192 21.5706 86.1134C21.3114 85.7076 21.1817 85.1891 21.1817 84.5578C21.1817 83.9153 21.3508 83.3291 21.689 82.7993C22.0384 82.2582 22.5626 81.8299 23.2615 81.5143C23.9717 81.1874 24.8678 81.0239 25.95 81.0239C26.6601 81.0239 27.3647 81.1141 28.0635 81.2945C28.7624 81.4748 29.3711 81.7341 29.8897 82.0723L29.1964 83.78C28.6666 83.4644 28.1199 83.2333 27.5563 83.0868C26.9927 82.929 26.4516 82.85 25.9331 82.85C25.3243 82.85 24.8284 82.9233 24.4451 83.0699C24.0731 83.2164 23.7969 83.408 23.6166 83.6448C23.4475 83.8815 23.3629 84.152 23.3629 84.4564C23.3629 84.8171 23.4869 85.1102 23.7349 85.3356C23.9942 85.5498 24.3267 85.7189 24.7325 85.8429C25.1496 85.9669 25.6118 86.0909 26.1191 86.2149C26.6263 86.3276 27.1279 86.4572 27.6239 86.6038C28.1312 86.7503 28.5877 86.9419 28.9935 87.1787C29.4106 87.4154 29.7431 87.7366 29.9911 88.1425C30.2504 88.5483 30.38 89.0612 30.38 89.6811C30.38 90.3124 30.2053 90.8986 29.8559 91.4396C29.5177 91.9694 28.9935 92.3978 28.2834 92.7247C27.5732 93.0403 26.677 93.1981 25.5949 93.1981ZM41.559 93.0291V83.053H37.6362V81.193H47.6799V83.053H43.7571V93.0291H41.559ZM64.4121 81.193H66.6102V93.0291H64.4121V81.193ZM58.2912 93.0291H56.0931V81.193H58.2912V93.0291ZM64.5812 87.9565H58.1052V86.0796H64.5812V87.9565ZM76.5452 93.0291V81.193H82.0913C83.5116 81.193 84.5938 81.4748 85.3377 82.0384C86.0817 82.5908 86.4537 83.3348 86.4537 84.2704C86.4537 84.9016 86.3072 85.4427 86.0141 85.8936C85.721 86.3332 85.3265 86.677 84.8305 86.925C84.3458 87.1618 83.816 87.2801 83.2411 87.2801L83.5454 86.6714C84.2105 86.6714 84.8079 86.7954 85.3377 87.0434C85.8675 87.2801 86.2846 87.6296 86.589 88.0917C86.9046 88.5539 87.0624 89.1288 87.0624 89.8164C87.0624 90.8309 86.6735 91.62 85.8957 92.1836C85.1179 92.7472 83.9625 93.0291 82.4295 93.0291H76.5452ZM78.7434 91.3044H82.2942C83.1171 91.3044 83.7483 91.1691 84.188 90.8986C84.6276 90.628 84.8474 90.194 84.8474 89.5966C84.8474 89.0104 84.6276 88.5821 84.188 88.3115C83.7483 88.0297 83.1171 87.8888 82.2942 87.8888H78.5743V86.1811H81.8546C82.6211 86.1811 83.2073 86.0458 83.6131 85.7752C84.0301 85.5047 84.2387 85.0989 84.2387 84.5578C84.2387 84.0055 84.0301 83.594 83.6131 83.3235C83.2073 83.053 82.6211 82.9177 81.8546 82.9177H78.7434V91.3044ZM107.608 93.0291V81.193H109.806V93.0291H107.608ZM119.771 93.0291V81.193H121.58L129.003 90.3068H128.107V81.193H130.288V93.0291H128.479L121.056 83.9153H121.952V93.0291H119.771Z" fill="white"/>
</svg>
