<svg width="75" height="55" fill="none" xmlns="http://www.w3.org/2000/svg"><path d="M35.04.07C17.418 1.048 3.075 12.005.832 26.178.678 27.183.5 29.102.5 29.839v.348h5.548c5.215 0 5.555-.008 5.596-.145.178-.575.558-1.45 1.085-2.487 3.336-6.56 8.374-12.05 13.646-14.877.696-.364.777-.429.583-.453-.186-.024-2.462.283-3.32.445-.26.049-.26.049.105-.235 2.275-1.749 5.037-3.069 7.612-3.628.778-.17 3.167-.315 3.442-.21.105.04-.016.21-.559.818-1.15 1.271-1.668 2.219-1.668 3.045v.413l-.818-.778c-.453-.429-.85-.777-.899-.777-.113 0-1.741 1.603-2.68 2.632-2.948 3.264-4.827 6.924-5.37 10.487-.162 1.11-.17 3.07 0 3.92.073.356.114.656.098.672-.017.017-1.005-.267-2.195-.623-1.19-.365-2.179-.648-2.195-.632-.016.016.097.3.235.632.332.753.858 1.555 1.555 2.373l.534.623H.5v9.232h74.02v-9.232H57.052l-.154-.17c-.081-.097-.373-.324-.632-.51l-.478-.332 9.37-.024 9.362-.017v-.429c0-.227-.04-.931-.08-1.555-.446-5.985-2.852-11.378-7.265-16.253-.988-1.102-3.304-3.248-3.37-3.135-.542 1.005-.817 1.701-.898 2.284l-.057.389-.227-.308c-.234-.324-.647-.72-1.166-1.11l-.3-.226-.55.47c-2 1.733-3.312 3.118-4.64 4.883-2.17 2.907-3.49 5.936-4.01 9.2-.177 1.117-.202 3.369-.04 4.316.057.365.097.68.081.697-.016.016-.866-.267-1.879-.624-1.012-.348-1.862-.623-1.886-.607-.057.057.656 1.717 1.02 2.389.178.324.324.607.324.632 0 .024-1.693.04-3.766.04-2.081 0-3.766-.032-3.766-.073 0-.105.672-1.603 1.142-2.527.219-.453.397-.834.38-.85-.048-.04-1.805.778-2.542 1.182-.705.39-.688.462-.219-.81 2.486-6.73 8.212-13.176 15.144-17.055.527-.291.972-.55.996-.575.025-.024-.089-.024-.242 0-.276.049-3.402.421-4.293.51l-.445.041.202-.17c.519-.437 2.09-1.417 3.078-1.936 1.636-.85 3.87-1.668 5.304-1.951.268-.049.535-.106.6-.13.137-.04-.316-.364-1.652-1.166C52.492 1.672 43.705-.417 35.04.069zm13.946 7.863c-.575.47-1.426 1.96-1.92 3.385-.105.292-.21.559-.243.591-.032.032-.356-.267-.729-.672-.364-.397-.696-.729-.736-.729-.146 0-2.325 2.195-3.127 3.159-2.356 2.818-4.008 6.073-4.68 9.24-.349 1.603-.47 4.05-.284 5.37.049.307.073.574.057.582-.016.016-1.061-.243-2.332-.575-1.264-.332-2.35-.607-2.406-.607-.227 0 1.005 2.138 1.863 3.215l.405.51h-7.88l.057-.186c.08-.276.729-1.693 1.134-2.503l.356-.712-1.304.648c-.72.364-1.32.64-1.344.623-.049-.048.178-.89.47-1.781 1.74-5.183 5.968-10.164 12.018-14.165a42.031 42.031 0 012.243-1.385c.567-.315 1.012-.59.988-.615-.13-.13-1.66.097-3.061.445-.438.114-.818.187-.843.162-.016-.024.251-.34.6-.696 2.154-2.211 5.806-3.482 10.236-3.547l.77-.008-.308.25zM3.699 32.73c.146.065.308.187.356.276.057.113.09 1.23.09 3.36v3.2l-.26.218c-.25.21-.267.219-1.263.186-.988-.024-1.004-.032-1.199-.25l-.194-.227v-3.175c0-3.507-.008-3.458.51-3.612.413-.122 1.644-.105 1.96.024zm3.134-.032c.567.162.55.08.55 3.62v3.175l-.194.226c-.194.219-.21.227-1.198.251-.996.033-1.012.025-1.263-.186l-.26-.219v-3.198c0-2.13.033-3.248.09-3.353.048-.098.202-.219.34-.276.307-.137 1.506-.154 1.935-.04zm3.32 0c.567.162.551.08.551 3.62v3.175l-.194.226c-.186.219-.227.227-1.102.251-1.012.033-1.23 0-1.457-.227-.154-.153-.162-.283-.162-3.425v-3.272l.186-.162a.93.93 0 01.34-.21c.308-.073 1.539-.057 1.838.024zm3.442.08c.34.22.357.39.332 3.67l-.024 3.126-.186.186c-.162.17-.276.186-1.118.21-.615.025-1.02 0-1.174-.073-.47-.186-.478-.25-.478-3.628V33.2l.203-.251c.259-.3.364-.324 1.417-.3.575.008.907.049 1.028.13zm3.32.106l.227.219.025 3.02c.016 2.017 0 3.11-.065 3.313-.138.478-.397.567-1.555.534-.947-.024-.972-.032-1.166-.25l-.194-.227v-3.118c0-3.467.008-3.523.51-3.669.137-.049.648-.073 1.125-.065.835.016.883.033 1.094.243zm3.16-.057l.226.17.024 3.288.016 3.28-.259.219c-.25.21-.267.219-1.263.186-.988-.024-1.004-.032-1.199-.25l-.194-.227v-3.175c0-3.507-.008-3.458.51-3.612.146-.049.632-.073 1.085-.065.697.016.859.04 1.053.186zm2.801.292l.697.51.008 2.972v2.964l-.251.21c-.235.203-.292.212-1.207.212s-.972-.009-1.207-.211l-.25-.21v-3.2c0-2.13.032-3.247.088-3.352.122-.235.527-.389 1.013-.397.38 0 .47.04 1.11.502zm6.795-.413c.55.146.55.154.55 3.669v3.117l-.194.227c-.186.219-.227.227-1.101.251-1.013.033-1.231 0-1.458-.227-.154-.153-.162-.283-.162-3.425v-3.272l.186-.162a.93.93 0 01.34-.21c.308-.073 1.54-.057 1.839.032zm3.401 0c.55.146.55.154.55 3.669v3.117l-.194.227c-.194.219-.218.227-1.166.251-1.158.033-1.417-.056-1.555-.534-.064-.203-.08-1.296-.064-3.313l.024-3.004.194-.21c.106-.114.267-.22.365-.235.356-.073 1.563-.049 1.846.032zm3.41.324l.461.413v2.94c0 1.676-.032 3.037-.08 3.15-.13.348-.462.453-1.418.453s-1.288-.105-1.417-.453c-.049-.122-.081-1.514-.081-3.272V33.2l.202-.251c.243-.283.34-.308 1.215-.316l.648-.016.47.413zm6.819-.17l.202.186v3.272c0 3.142-.008 3.272-.162 3.425-.227.227-.445.26-1.458.227-.874-.024-.915-.032-1.101-.25-.194-.227-.194-.244-.194-2.082 0-1.62.016-1.855.121-1.814.065.032.121.016.121-.032 0-.397.56-2.851.713-3.127.016-.032.38-.048.794-.032.656.024.785.057.963.227zm3.077-.13c.146.065.308.187.356.276.057.113.09 1.23.09 3.36v3.2l-.26.218c-.25.21-.267.219-1.263.186-.988-.024-1.004-.032-1.199-.25l-.194-.227v-3.175c0-3.507-.008-3.458.51-3.612.413-.122 1.644-.105 1.96.024zm3.134-.032c.567.162.55.08.55 3.62v3.175l-.194.226c-.194.219-.21.227-1.198.251-.996.033-1.013.025-1.264-.186l-.259-.219v-3.198c0-2.13.033-3.248.09-3.353.048-.098.202-.219.34-.276.307-.137 1.506-.154 1.935-.04zm10.196.227l.235.259v3.085c0 3.377-.008 3.442-.478 3.628-.154.073-.559.098-1.174.073-.842-.024-.956-.04-1.118-.21l-.186-.186-.024-3.127c-.025-3.296-.008-3.49.332-3.652.34-.162.429-.17 1.295-.154l.883.016.235.268zm3.264-.073l.21.194v3.272c0 3.142-.008 3.272-.162 3.425-.227.227-.445.26-1.457.227-.875-.024-.916-.032-1.102-.25l-.194-.227v-3.118c0-3.467.008-3.523.51-3.669.138-.049.648-.073 1.126-.065.785.016.882.033 1.069.21zm3.263-.025l.227.17.024 3.232c.017 2.324-.008 3.28-.072 3.41-.154.29-.47.364-1.49.331-.924-.024-.948-.032-1.142-.25l-.195-.227v-3.175c0-3.507-.008-3.458.51-3.612.146-.049.632-.073 1.086-.065.696.016.858.04 1.052.186zm3.402 0l.227.17.024 3.288.016 3.28-.26.219c-.25.21-.266.219-1.263.186-.987-.024-1.004-.032-1.198-.25l-.195-.227v-3.175c0-3.507-.008-3.458.51-3.612.146-.049.632-.073 1.086-.065.696.016.858.04 1.053.186zm3.223-.097c.146.065.308.187.356.276.057.113.09 1.23.09 3.36v3.2l-.26.218c-.25.21-.267.219-1.263.186-.988-.024-1.004-.032-1.199-.25l-.194-.227v-3.175c0-3.507-.008-3.458.51-3.612.413-.122 1.644-.105 1.96.024zm-16.497.13c.098.089.195.25.219.348.024.097.032 1.571.024 3.272l-.024 3.094-.186.186c-.162.17-.276.186-1.118.21-.623.025-1.02 0-1.182-.073-.421-.17-.47-.42-.47-2.47 0-1.004.024-1.814.065-1.797.032.016.283.145.559.291.275.138.526.26.55.26.025 0 .04-.227.04-.511 0-.575.163-1.19.462-1.798.235-.453.737-1.174.827-1.174.032 0 .137.073.234.162zm-29.591.097c.113.154.13.615.13 3.36v3.175l-.195.227c-.187.219-.227.227-1.102.251-1.036.033-1.23 0-1.457-.243-.154-.17-.162-.275-.162-2.996v-2.818l.429.275c.227.146.688.421 1.012.6l.583.331v-.38c0-.365.154-1.15.332-1.701.098-.3.251-.332.43-.081zm24.813.94c.519.518 1.142 1.077 1.369 1.23l.421.284.008 2.04v2.041l-.194.227c-.187.219-.227.227-1.102.251-1.012.033-1.23 0-1.457-.227-.154-.153-.162-.283-.162-3.425 0-2.9.016-3.377.137-3.377.017 0 .454.429.98.955zm-13.613.307c.348.251 1.004.672 1.466.94l.826.486v1.814c0 2.032-.049 2.283-.47 2.453-.162.073-.559.098-1.19.073-.924-.024-.948-.032-1.142-.25l-.195-.227v-2.876c0-1.579.016-2.866.033-2.866.024 0 .324.202.672.453z" fill="#3452B5"/><path d="M64.438 6.597c-.454.032-2.657.332-2.94.404-.162.04-.146.065.202.284.454.291 1.604 1.15 1.895 1.417l.21.194.47-.672c.26-.372.6-.834.762-1.036.575-.705.559-.648.162-.632-.195.008-.535.024-.761.04zM4.234 51.376c-.912 0-1.628-.257-2.148-.77-.513-.514-.77-1.255-.77-2.224v-3.755h1.236v3.707c0 .684.146 1.182.437 1.492.298.31.716.466 1.255.466.538 0 .953-.155 1.245-.466.291-.31.437-.807.437-1.492v-3.707h1.217v3.755c0 .97-.26 1.71-.78 2.224-.513.513-1.223.77-2.129.77zm10.504 0c-.52 0-1.017-.073-1.492-.219-.476-.152-.853-.345-1.132-.58l.428-.96c.266.21.596.384.989.523.393.14.795.21 1.207.21.348 0 .63-.039.846-.115.215-.076.373-.177.475-.304a.72.72 0 00.152-.447.597.597 0 00-.219-.485 1.513 1.513 0 00-.57-.294 7.808 7.808 0 00-.77-.21c-.279-.063-.56-.136-.846-.218a4.026 4.026 0 01-.77-.333 1.726 1.726 0 01-.56-.55c-.146-.229-.219-.52-.219-.875 0-.361.095-.691.285-.989.197-.304.491-.545.884-.722.4-.184.903-.276 1.511-.276.4 0 .796.05 1.188.152.393.102.735.247 1.027.438l-.39.96a3.536 3.536 0 00-.922-.39 3.382 3.382 0 00-.912-.133c-.342 0-.621.04-.837.123-.209.083-.364.19-.465.323a.765.765 0 00-.143.457c0 .202.07.367.21.494.145.12.332.215.56.285.235.07.494.14.78.21.285.063.567.135.845.218.285.082.542.19.77.323.235.133.422.314.561.542.146.228.219.516.219.865 0 .355-.099.684-.295.988-.19.298-.485.539-.884.723-.4.177-.903.266-1.511.266zm8.974-.095v-5.608h-2.206v-1.046h5.646v1.046h-2.205v5.608h-1.235zm12.846-6.654h1.236v6.654h-1.236v-6.654zm-3.44 6.654h-1.236v-6.654h1.235v6.654zm3.535-2.852h-3.64v-1.055h3.64v1.055zm6.726 2.852v-6.654h3.117c.798 0 1.407.159 1.825.475.418.311.627.73.627 1.255 0 .355-.082.66-.247.913-.165.247-.386.44-.665.58-.273.133-.57.199-.894.199l.171-.342c.374 0 .71.07 1.008.209.298.133.532.33.703.59.178.259.267.582.267.969 0 .57-.22 1.014-.656 1.33-.438.317-1.087.476-1.949.476H43.38zm1.235-.97h1.996c.463 0 .818-.076 1.065-.228.247-.152.37-.396.37-.732 0-.33-.123-.57-.37-.722-.247-.159-.602-.238-1.065-.238H44.52v-.96h1.844c.43 0 .76-.076.989-.228.234-.152.351-.38.351-.684 0-.31-.117-.542-.352-.694-.228-.152-.557-.228-.988-.228h-1.749v4.714zm16.226.97v-6.654h1.235v6.654H60.84zm6.837 0v-6.654h1.017l4.173 5.123h-.504v-5.123h1.226v6.654h-1.017L68.4 46.158h.503v5.123h-1.226z" fill="#3452B5"/></svg>