<svg width="393" height="286" viewBox="0 0 393 286" fill="none" xmlns="http://www.w3.org/2000/svg">
<path d="M182.758 0.862634C89.295 6.05978 13.2277 64.1733 1.33008 139.339C0.513997 144.665 -0.430939 154.844 -0.430939 158.753V160.6H28.9909C56.6517 160.6 58.4557 160.557 58.6705 159.827C59.6154 156.777 61.6341 152.138 64.426 146.64C82.1221 111.85 108.838 82.7284 136.799 67.7383C140.493 65.8055 140.923 65.4619 139.892 65.333C138.904 65.2041 126.835 66.8363 122.282 67.6953C120.907 67.953 120.907 67.953 122.84 66.4497C134.91 57.1722 149.556 50.1711 163.215 47.2074C167.338 46.3054 180.009 45.5323 181.469 46.0907C182.027 46.3054 181.383 47.2074 178.505 50.4288C172.406 57.1722 169.657 62.1975 169.657 66.5786V68.7691L165.319 64.6458C162.914 62.3693 160.809 60.5224 160.552 60.5224C159.95 60.5224 151.317 69.0268 146.335 74.4817C130.7 91.7912 120.736 111.205 117.858 130.104C116.999 135.988 116.956 146.383 117.858 150.893C118.244 152.782 118.459 154.372 118.373 154.458C118.287 154.543 113.047 153.04 106.733 151.15C100.419 149.217 95.1793 147.714 95.0934 147.8C95.0075 147.886 95.6089 149.389 96.339 151.15C98.1001 155.145 100.892 159.397 104.586 163.735L107.421 167.042H53.4733H-0.430939V191.525V216.007H195.858H392.147V191.525V167.042H345.845H299.5L298.684 166.14C298.255 165.625 296.708 164.422 295.334 163.434L292.8 161.673L342.495 161.545L392.147 161.459V159.182C392.147 157.98 391.932 154.243 391.717 150.936C389.355 119.194 376.598 90.5885 353.19 64.7317C347.95 58.8903 335.665 47.5081 335.322 48.1094C332.444 53.4354 330.984 57.1292 330.554 60.2218L330.254 62.2834L329.051 60.6513C327.805 58.9332 325.615 56.8286 322.866 54.7669L321.277 53.5643L318.356 56.0555C307.747 65.2471 300.789 72.5918 293.745 81.9553C282.234 97.3749 275.233 113.439 272.484 130.748C271.539 136.676 271.41 148.616 272.269 153.642C272.569 155.574 272.784 157.249 272.698 157.335C272.612 157.421 268.103 155.918 262.734 154.028C257.365 152.181 252.855 150.721 252.726 150.807C252.425 151.107 256.205 159.912 258.138 163.477C259.083 165.195 259.856 166.699 259.856 166.828C259.856 166.957 250.879 167.042 239.883 167.042C228.845 167.042 219.911 166.871 219.911 166.656C219.911 166.097 223.476 158.151 225.967 153.255C227.127 150.85 228.072 148.831 227.986 148.745C227.728 148.53 218.408 152.868 214.499 155.016C210.762 157.078 210.848 157.464 213.339 150.721C226.525 115.028 256.892 80.8385 293.659 60.2647C296.451 58.7184 298.813 57.344 298.942 57.2151C299.071 57.0863 298.469 57.0863 297.653 57.2151C296.193 57.4729 279.614 59.4486 274.889 59.9211L272.527 60.1359L273.6 59.2339C276.349 56.9145 284.682 51.7173 289.922 48.9684C298.598 44.4585 310.453 40.1204 318.055 38.6171C319.473 38.3594 320.89 38.0587 321.234 37.9299C321.964 37.7151 319.559 35.9971 312.472 31.7449C275.318 9.36706 228.716 -1.71446 182.758 0.862634ZM256.72 42.5686C253.671 45.0598 249.161 52.9629 246.541 60.5224C245.982 62.0687 245.424 63.4861 245.252 63.6579C245.08 63.8297 243.362 62.2405 241.387 60.0929C239.454 57.9883 237.693 56.2273 237.478 56.2273C236.705 56.2273 225.151 67.8671 220.899 72.9784C208.4 87.9255 199.638 105.192 196.073 121.986C194.226 130.491 193.581 143.462 194.569 150.463C194.827 152.095 194.956 153.513 194.87 153.556C194.784 153.642 189.243 152.267 182.5 150.506C175.8 148.745 170.044 147.285 169.743 147.285C168.541 147.285 175.069 158.624 179.622 164.336L181.77 167.042H160.852H139.978L140.279 166.055C140.708 164.594 144.144 157.078 146.292 152.782L148.182 149.003L141.266 152.439C137.444 154.372 134.265 155.832 134.136 155.746C133.879 155.488 135.081 151.021 136.628 146.297C145.862 118.808 168.283 92.3925 200.368 71.1744C203.933 68.8121 209.259 65.5048 212.265 63.8297C215.272 62.1546 217.634 60.6942 217.506 60.5654C216.818 59.8781 208.7 61.0808 201.27 62.9277C198.95 63.529 196.932 63.9156 196.803 63.7867C196.717 63.6579 198.134 61.9828 199.981 60.0929C211.406 48.3671 230.778 41.6237 254.272 41.2801L258.353 41.2371L256.72 42.5686ZM16.5349 174.086C17.3081 174.43 18.1671 175.074 18.4248 175.547C18.7255 176.148 18.8973 182.075 18.8973 193.372V210.338L17.5228 211.497C16.1913 212.614 16.1054 212.657 10.8224 212.485C5.58229 212.356 5.49638 212.313 4.46554 211.154L3.43471 209.951V193.114C3.43471 174.516 3.39175 174.774 6.14066 173.958C8.33119 173.313 14.8598 173.399 16.5349 174.086ZM33.1572 173.915C36.1638 174.774 36.0779 174.344 36.0779 193.114V209.951L35.0471 211.154C34.0163 212.313 33.9303 212.356 28.6903 212.485C23.4072 212.657 23.3213 212.614 21.9898 211.497L20.6153 210.338V193.372C20.6153 182.075 20.7872 176.148 21.0878 175.59C21.3455 175.074 22.1616 174.43 22.8918 174.129C24.5239 173.399 30.8808 173.313 33.1572 173.915ZM50.7674 173.915C53.774 174.774 53.6881 174.344 53.6881 193.114V209.951L52.6572 211.154C51.6694 212.313 51.4546 212.356 46.8158 212.485C41.4469 212.657 40.2872 212.485 39.0845 211.283C38.2685 210.466 38.2255 209.779 38.2255 193.114V175.762L39.2134 174.903C39.7288 174.387 40.5449 173.915 41.0174 173.786C42.6495 173.399 49.1782 173.485 50.7674 173.915ZM69.0218 174.344C70.8258 175.504 70.9117 176.406 70.7828 193.801L70.654 210.381L69.6661 211.368C68.8071 212.27 68.2057 212.356 63.7388 212.485C60.4744 212.614 58.3269 212.485 57.5108 212.099C55.0196 211.111 54.9766 210.767 54.9766 192.856V176.578L56.0504 175.246C57.4249 173.657 57.9832 173.528 63.567 173.657C66.6165 173.7 68.3775 173.915 69.0218 174.344ZM86.632 174.903L87.8346 176.062L87.9635 192.083C88.0494 202.778 87.9635 208.577 87.6199 209.65C86.8897 212.185 85.5152 212.657 79.3732 212.485C74.3478 212.356 74.219 212.313 73.1881 211.154L72.1573 209.951V193.415C72.1573 175.031 72.2002 174.731 74.8632 173.958C75.5934 173.7 78.2994 173.571 80.8335 173.614C85.2575 173.7 85.5152 173.786 86.632 174.903ZM103.383 174.602L104.586 175.504L104.715 192.942L104.801 210.338L103.426 211.497C102.095 212.614 102.009 212.657 96.7256 212.485C91.4855 212.356 91.3996 212.313 90.3688 211.154L89.3379 209.951V193.114C89.3379 174.516 89.295 174.774 92.0439 173.958C92.817 173.7 95.3941 173.571 97.7994 173.614C101.493 173.7 102.352 173.829 103.383 174.602ZM118.244 176.148L121.938 178.854L121.981 194.617V210.338L120.65 211.454C119.404 212.528 119.103 212.571 114.25 212.571C109.396 212.571 109.096 212.528 107.85 211.454L106.519 210.338V193.372C106.519 182.075 106.69 176.148 106.991 175.59C107.635 174.344 109.783 173.528 112.36 173.485C114.379 173.485 114.851 173.7 118.244 176.148ZM154.281 173.958C157.201 174.731 157.201 174.774 157.201 193.415V209.951L156.171 211.154C155.183 212.313 154.968 212.356 150.329 212.485C144.96 212.657 143.801 212.485 142.598 211.283C141.782 210.466 141.739 209.779 141.739 193.114V175.762L142.727 174.903C143.242 174.387 144.058 173.915 144.531 173.786C146.163 173.399 152.692 173.485 154.281 173.958ZM172.32 173.958C175.241 174.731 175.241 174.774 175.241 193.415V209.951L174.21 211.154C173.179 212.313 173.051 212.356 168.025 212.485C161.883 212.657 160.509 212.185 159.779 209.65C159.435 208.577 159.349 202.778 159.435 192.083L159.564 176.148L160.595 175.031C161.153 174.43 162.012 173.872 162.527 173.786C164.417 173.399 170.817 173.528 172.32 173.958ZM190.403 175.676L192.851 177.866V193.458C192.851 202.349 192.679 209.565 192.422 210.166C191.735 212.013 189.974 212.571 184.905 212.571C179.837 212.571 178.076 212.013 177.389 210.166C177.131 209.522 176.959 202.134 176.959 192.813V176.578L178.033 175.246C179.322 173.743 179.837 173.614 184.476 173.571L187.912 173.485L190.403 175.676ZM226.568 174.774L227.642 175.762V193.114C227.642 209.779 227.599 210.466 226.783 211.283C225.58 212.485 224.421 212.657 219.052 212.485C214.413 212.356 214.198 212.313 213.21 211.154C212.18 209.951 212.18 209.865 212.18 200.115C212.18 191.525 212.265 190.279 212.824 190.494C213.167 190.666 213.468 190.58 213.468 190.322C213.468 188.218 216.432 175.203 217.248 173.743C217.334 173.571 219.267 173.485 221.457 173.571C224.936 173.7 225.623 173.872 226.568 174.774ZM242.89 174.086C243.663 174.43 244.522 175.074 244.78 175.547C245.08 176.148 245.252 182.075 245.252 193.372V210.338L243.878 211.497C242.546 212.614 242.46 212.657 237.177 212.485C231.937 212.356 231.851 212.313 230.821 211.154L229.79 209.951V193.114C229.79 174.516 229.747 174.774 232.496 173.958C234.686 173.313 241.215 173.399 242.89 174.086ZM259.512 173.915C262.519 174.774 262.433 174.344 262.433 193.114V209.951L261.402 211.154C260.371 212.313 260.285 212.356 255.045 212.485C249.762 212.657 249.676 212.614 248.345 211.497L246.97 210.338V193.372C246.97 182.075 247.142 176.148 247.443 175.59C247.701 175.074 248.517 174.43 249.247 174.129C250.879 173.399 257.236 173.313 259.512 173.915ZM313.588 175.117L314.834 176.492V192.856C314.834 210.767 314.791 211.111 312.3 212.099C311.484 212.485 309.336 212.614 306.072 212.485C301.605 212.356 301.003 212.27 300.144 211.368L299.157 210.381L299.028 193.801C298.899 176.32 298.985 175.289 300.789 174.43C302.593 173.571 303.065 173.528 307.661 173.614L312.343 173.7L313.588 175.117ZM330.898 174.731L332.015 175.762V193.114C332.015 209.779 331.972 210.466 331.155 211.283C329.953 212.485 328.793 212.657 323.424 212.485C318.785 212.356 318.571 212.313 317.583 211.154L316.552 209.951V193.415C316.552 175.031 316.595 174.731 319.258 173.958C319.988 173.7 322.694 173.571 325.228 173.614C329.394 173.7 329.91 173.786 330.898 174.731ZM348.207 174.602L349.41 175.504L349.539 192.642C349.625 204.969 349.496 210.037 349.152 210.724C348.336 212.27 346.661 212.657 341.249 212.485C336.353 212.356 336.224 212.313 335.193 211.154L334.162 209.951V193.114C334.162 174.516 334.119 174.774 336.868 173.958C337.641 173.7 340.218 173.571 342.624 173.614C346.317 173.7 347.176 173.829 348.207 174.602ZM366.247 174.602L367.45 175.504L367.578 192.942L367.664 210.338L366.29 211.497C364.958 212.614 364.873 212.657 359.589 212.485C354.349 212.356 354.263 212.313 353.233 211.154L352.202 209.951V193.114C352.202 174.516 352.159 174.774 354.908 173.958C355.681 173.7 358.258 173.571 360.663 173.614C364.357 173.7 365.216 173.829 366.247 174.602ZM383.342 174.086C384.115 174.43 384.974 175.074 385.232 175.547C385.532 176.148 385.704 182.075 385.704 193.372V210.338L384.33 211.497C382.998 212.614 382.912 212.657 377.629 212.485C372.389 212.356 372.303 212.313 371.272 211.154L370.241 209.951V193.114C370.241 174.516 370.199 174.774 372.947 173.958C375.138 173.313 381.667 173.399 383.342 174.086ZM295.849 174.774C296.365 175.246 296.88 176.105 297.009 176.621C297.138 177.136 297.181 184.953 297.138 193.973L297.009 210.381L296.021 211.368C295.162 212.27 294.561 212.356 290.094 212.485C286.786 212.614 284.682 212.485 283.823 212.099C281.589 211.197 281.332 209.865 281.332 198.998C281.332 193.672 281.46 189.377 281.675 189.463C281.847 189.549 283.179 190.236 284.639 191.009C286.099 191.74 287.431 192.384 287.56 192.384C287.688 192.384 287.774 191.181 287.774 189.678C287.774 186.628 288.633 183.364 290.223 180.143C291.468 177.737 294.131 173.915 294.604 173.915C294.775 173.915 295.334 174.301 295.849 174.774ZM138.904 175.289C139.505 176.105 139.591 178.553 139.591 193.114V209.951L138.56 211.154C137.573 212.313 137.358 212.356 132.719 212.485C127.221 212.657 126.19 212.485 124.988 211.197C124.172 210.295 124.129 209.736 124.129 195.305V180.357L126.405 181.818C127.608 182.591 130.056 184.051 131.774 184.996L134.867 186.757V184.738C134.867 182.806 135.683 178.639 136.628 175.719C137.143 174.129 137.959 173.958 138.904 175.289ZM270.508 180.272C273.257 183.02 276.564 185.984 277.767 186.8L280 188.303L280.043 199.127V209.951L279.012 211.154C278.024 212.313 277.81 212.356 273.171 212.485C267.802 212.657 266.642 212.485 265.44 211.283C264.623 210.466 264.58 209.779 264.58 193.114C264.58 177.737 264.666 175.203 265.311 175.203C265.397 175.203 267.716 177.48 270.508 180.272ZM198.306 181.904C200.153 183.235 203.632 185.469 206.08 186.886L210.461 189.463V199.084C210.461 209.865 210.204 211.197 207.97 212.099C207.111 212.485 205.007 212.614 201.656 212.485C196.76 212.356 196.631 212.313 195.6 211.154L194.569 209.951V194.703C194.569 186.328 194.655 179.498 194.741 179.498C194.87 179.498 196.459 180.572 198.306 181.904Z" fill="white"/>
<path d="M338.672 35.4816C336.267 35.6534 324.584 37.2427 323.081 37.6292C322.222 37.844 322.308 37.9728 324.155 39.1325C326.56 40.6788 332.659 45.2317 334.205 46.6491L335.322 47.6799L337.813 44.1149C339.188 42.1391 340.992 39.6909 341.851 38.6171C344.9 34.8803 344.814 35.181 342.71 35.2669C341.679 35.3098 339.875 35.3957 338.672 35.4816Z" fill="white"/>
<path d="M19.3739 274.243C14.5345 274.243 10.7369 272.882 7.98109 270.159C5.25892 267.437 3.89783 263.505 3.89783 258.363V238.451H10.4512V258.111C10.4512 261.741 11.2242 264.379 12.7701 266.026C14.3496 267.673 16.5677 268.496 19.4243 268.496C22.2809 268.496 24.4822 267.673 26.0281 266.026C27.574 264.379 28.347 261.741 28.347 258.111V238.451H34.7995V258.363C34.7995 263.505 33.4216 267.437 30.6659 270.159C27.9437 272.882 24.1797 274.243 19.3739 274.243ZM75.0807 274.243C72.3249 274.243 69.6868 273.856 67.1663 273.083C64.6457 272.277 62.6461 271.252 61.1674 270.008L63.4359 264.917C64.8474 266.026 66.5949 266.95 68.6786 267.689C70.7622 268.429 72.8963 268.798 75.0807 268.798C76.9291 268.798 78.4246 268.597 79.5673 268.193C80.7099 267.79 81.5501 267.252 82.0878 266.58C82.6255 265.875 82.8944 265.085 82.8944 264.211C82.8944 263.136 82.5079 262.279 81.7349 261.64C80.962 260.968 79.9537 260.447 78.7103 260.077C77.5004 259.674 76.1393 259.304 74.627 258.968C73.1483 258.632 71.6528 258.246 70.1405 257.809C68.6618 257.338 67.3007 256.75 66.0572 256.044C64.8474 255.305 63.856 254.331 63.083 253.121C62.31 251.911 61.9236 250.365 61.9236 248.483C61.9236 246.567 62.4277 244.82 63.4359 243.24C64.4777 241.627 66.0404 240.35 68.1241 239.409C70.2413 238.434 72.9131 237.947 76.1393 237.947C78.2566 237.947 80.357 238.216 82.4407 238.754C84.5243 239.291 86.3391 240.064 87.885 241.073L85.8182 246.164C84.2386 245.223 82.6087 244.534 80.9283 244.097C79.248 243.627 77.6349 243.391 76.0889 243.391C74.2742 243.391 72.7954 243.61 71.6528 244.047C70.5438 244.484 69.7204 245.055 69.1827 245.761C68.6786 246.466 68.4265 247.273 68.4265 248.18C68.4265 249.256 68.7962 250.13 69.5356 250.802C70.3085 251.44 71.2999 251.944 72.5098 252.314C73.7532 252.684 75.1311 253.053 76.6434 253.423C78.1558 253.759 79.6513 254.146 81.13 254.583C82.6423 255.019 84.0034 255.591 85.2132 256.297C86.4567 257.002 87.4481 257.96 88.1875 259.17C88.9604 260.38 89.3469 261.909 89.3469 263.757C89.3469 265.639 88.826 267.387 87.7842 269C86.776 270.58 85.2132 271.857 83.096 272.831C80.9788 273.772 78.307 274.243 75.0807 274.243ZM122.675 273.739V243.996H110.98V238.451H140.924V243.996H129.229V273.739H122.675ZM190.808 238.451H197.362V273.739H190.808V238.451ZM172.56 273.739H166.006V238.451H172.56V273.739ZM191.313 258.615H172.005V253.02H191.313V258.615ZM226.982 273.739V238.451H243.516C247.751 238.451 250.977 239.291 253.195 240.972C255.413 242.618 256.522 244.837 256.522 247.626C256.522 249.508 256.085 251.121 255.212 252.465C254.338 253.776 253.161 254.801 251.683 255.54C250.238 256.246 248.658 256.599 246.944 256.599L247.852 254.784C249.834 254.784 251.616 255.154 253.195 255.893C254.775 256.599 256.018 257.641 256.925 259.019C257.866 260.397 258.337 262.111 258.337 264.161C258.337 267.185 257.178 269.538 254.859 271.218C252.54 272.898 249.095 273.739 244.524 273.739H226.982ZM233.535 268.597H244.121C246.575 268.597 248.456 268.193 249.767 267.387C251.078 266.58 251.733 265.286 251.733 263.505C251.733 261.758 251.078 260.481 249.767 259.674C248.456 258.834 246.575 258.414 244.121 258.414H233.031V253.322H242.811C245.096 253.322 246.843 252.919 248.053 252.112C249.297 251.306 249.918 250.096 249.918 248.483C249.918 246.836 249.297 245.609 248.053 244.803C246.843 243.996 245.096 243.593 242.811 243.593H233.535V268.597ZM319.591 273.739V238.451H326.145V273.739H319.591ZM355.853 273.739V238.451H361.247L383.378 265.622H380.706V238.451H387.209V273.739H381.815L359.685 246.567H362.356V273.739H355.853Z" fill="white"/>
</svg>
